# xmcd
#
# Track frame offsets:
#	150
#	13771
#	24786
#	36833
#	50191
#	63103
#	74393
#	87041
#	99923
#	111091
#	124661
#	139901
#	163373
#	177128
#	190003
#	197841
#	210951
#	220578
#
# Disc length: 3189 seconds
#
# Revision: 1
# Processed by: cddbd v1.5.1PL2 Copyright (c) Steve Scherf et al.
# Submitted via: EasyCDDAExtractor 6.2.0.3
#
DISCID=f30c7312
DTITLE=Various Artist - 10 Blues Legends CD 5
DYEAR=1900
DGENRE=
TTITLE0=Robert Johnson - Sweet Home Chicago
TTITLE1=Robert Johnson - Love In Vain
TTITLE2=Robert Johnson - Crossroad
TTITLE3=Robert Johnson - I Believe I'll Dust My Broom
TTITLE4=Robert Johnson - Ramblin' On My Mind
TTITLE5=Robert Johnson - Walking Blues
TTITLE6=Robert Johnson - Come On In My Kitchen
TTITLE7=Robert Johnson - Kind Hearted Woman Blues
TTITLE8=Robert Johnson - Stone In My Pathway
TTITLE9=Robert Johnson - Terraplane Blues
TTITLE10=Son House - Shetland Pony Blues
TTITLE11=Son House - Delta Blues
TTITLE12=Son House - Special Rider Blues
TTITLE13=Son House - Depot Blues
TTITLE14=Son House - Am I Right Or Wrong?
TTITLE15=Son House - Walking Blues
TTITLE16=Son House - Country Farm Blues
TTITLE17=Son House - The Pony Blues
EXTD=
EXTT0=
EXTT1=
EXTT2=
EXTT3=
EXTT4=
EXTT5=
EXTT6=
EXTT7=
EXTT8=
EXTT9=
EXTT10=
EXTT11=
EXTT12=
EXTT13=
EXTT14=
EXTT15=
EXTT16=
EXTT17=
PLAYORDER=
